<?xml version="1.0" standalone="no"?>
<!DOCTYPE svg PUBLIC "-//W3C//DTD SVG 20010904//EN"
 "http://www.w3.org/TR/2001/REC-SVG-20010904/DTD/svg10.dtd">
<svg version="1.0" xmlns="http://www.w3.org/2000/svg"
 width="180.000000pt" height="180.000000pt" viewBox="0 0 180.000000 180.000000"
 preserveAspectRatio="xMidYMid meet">

<g transform="translate(0.000000,180.000000) scale(0.100000,-0.100000)"
fill="#000000" stroke="none">
<path d="M300 1786 c-104 -30 -205 -108 -249 -194 -49 -97 -51 -120 -51 -689
0 -563 2 -598 47 -687 30 -59 106 -137 161 -165 97 -49 120 -51 689 -51 356 0
550 4 585 11 122 26 226 110 281 227 l32 67 3 560 c3 406 0 575 -8 615 -27
124 -110 227 -228 283 l-67 32 -575 2 c-440 1 -586 -1 -620 -11z m480 -551 l0
-155 28 7 c15 5 61 8 102 7 135 -1 243 -64 305 -175 l30 -54 3 -227 3 -228
-115 0 -116 0 0 204 c0 187 -2 205 -20 228 -46 59 -144 63 -192 8 l-28 -30 0
-205 0 -205 -115 0 -115 0 0 490 0 490 115 0 115 0 0 -155z m470 50 l0 -106
-112 3 -113 3 -3 103 -3 102 116 0 115 0 0 -105z"/>
</g>
</svg>
